<svg xmlns="http://www.w3.org/2000/svg" version="1.1" xmlns:xlink="http://www.w3.org/1999/xlink" xmlns:svgjs="http://svgjs.dev/svgjs" viewBox="0 0 10.504925563855593 10.495049708127086"><g transform="matrix(1,0,0,1,3.1321140222951627,3.1364146551461225)"><rect width="10.504925563855593" height="10.504925563855593" x="-3.1321140222951627" y="-3.1413525830103763" fill="#ececd9"></rect><g><path d=" M 1.1855416593756962 -2.1493528850701082 Q 1.2344231203301939 -2.159869670460802 1.2622603406663924 -2.1540956628444285 Q 1.2900975610025909 -2.148321655228055 1.3125948452937841 -2.138841560317073 Q 1.3257987458775609 -2.13452218427721 1.333867139998084 -2.1326779998189993 Q 1.3419355341186072 -2.1308338153607886 1.3487789386522369 -2.1323061653154856 Q 1.3585552308431366 -2.1344095223936246 1.3606408695430887 -2.1461099544887765 Q 1.3627265082430406 -2.1578103865839284 1.361032010328405 -2.1799492365273494 L 1.383517482367474 -2.184786957807068 Q 1.3861155601812203 -2.1679569253747255 1.3895920054862114 -2.1446671351643904 Q 1.3930684507912026 -2.121377344954056 1.4006775609324922 -2.0836334521651856 Q 1.4082866710737816 -2.0458895593763153 1.421537820666056 -1.9842989185736484 L 1.399052348626987 -1.979461197293929 Q 1.386023346994651 -2.025756392686805 1.359171249907221 -2.0649860355861134 Q 1.332319152819791 -2.1042156784854216 1.292701544942399 -2.124332714700361 Q 1.2530839370650069 -2.1444497509153013 1.1983367007959695 -2.1326709512777238 Q 1.1465223521842018 -2.121523158763588 1.1195248867756427 -2.0829824418331304 Q 1.0925274213670835 -2.0444417249026734 1.1034648781734053 -1.9936050055099956 Q 1.11292998502503 -1.9496116906509475 1.1418306961524223 -1.9246317207484234 Q 1.1707314072798145 -1.899651750845899 1.2135233570562178 -1.8837977597290296 Q 1.2563153068326212 -1.86794376861216 1.3061980215104578 -1.850035257329266 Q 1.3637654835531796 -1.8296885791247093 1.40998504172246 -1.8074118548898381 Q 1.4562045998917403 -1.7851351306549665 1.4871716434372817 -1.7529281094631746 Q 1.5181386869828233 -1.7207210882713826 1.529496815204773 -1.667929110440525 Q 1.5429583005048613 -1.605360840418768 1.5234411528794356 -1.5582006776903872 Q 1.50392400525401 -1.5110405149620068 1.4614148526017836 -1.4804141873860512 Q 1.4189056999495573 -1.449787859810096 1.36220320524234 -1.437588388756891 Q 1.3103888566305724 -1.426440596242755 1.2775583223450173 -1.4316517399296043 Q 1.244727788059462 -1.4368628836164534 1.2204855810379027 -1.4449446778927175 Q 1.1960330383085294 -1.4540041013880716 1.18430148767945 -1.451480072894305 Q 1.1745251954885503 -1.4493767158161661 1.1724395567885981 -1.4376762837210142 Q 1.1703539180886462 -1.425975851625862 1.1720484160032816 -1.4038370016824415 L 1.1495629439642128 -1.3989992804027223 Q 1.147101152538301 -1.419950165419239 1.1415953994751504 -1.4479177660172098 Q 1.1360896464119998 -1.4758853666151803 1.1269030184621063 -1.5209614785472252 Q 1.1177163905122127 -1.56603759047927 1.1029928909652411 -1.6344716358155669 L 1.12547836300431 -1.6393093570952861 Q 1.1420090223495027 -1.5814929467811443 1.1710326197089886 -1.5345474379830235 Q 1.2000562170684748 -1.4876019291849027 1.2443205167995752 -1.4649045335344035 Q 1.2885848165306757 -1.4422071378839045 1.3511530865524328 -1.4556686231839928 Q 1.3834148507824011 -1.4626097015418509 1.4094153806900673 -1.4820125993800748 Q 1.4354159105977335 -1.5014154972182987 1.4477859623799332 -1.534251937629916 Q 1.4601560141621328 -1.5670883780415334 1.4502702358948805 -1.6130369513387612 Q 1.4416464718745114 -1.6531197493214493 1.416167463013934 -1.6788358942013222 Q 1.3906884541533564 -1.7045520390811952 1.3508975352281403 -1.7230974636135932 Q 1.311106616302924 -1.741642888145991 1.2592686431869073 -1.7591307280132575 Q 1.207220334363077 -1.7775961970996137 1.1608274651459725 -1.7983013096519431 Q 1.114434595928868 -1.8190064222042728 1.0821744196025158 -1.8524695515168859 Q 1.0499142432761637 -1.885932680829499 1.0381354436385863 -1.9406799170985363 Q 1.0257256368775673 -1.9983600410248434 1.0435348864326166 -2.0415726622168746 Q 1.0613441359876659 -2.084785283408906 1.099490981813977 -2.1119158593980667 Q 1.1376378276402885 -2.139046435387228 1.1855416593756962 -2.1493528850701082 M 1.9319113718062824 -2.2396006399233066 L 2.2046314756491854 -1.6225100914947017 Q 2.221366278289723 -1.58524152054568 2.2409220009853854 -1.573630159305483 Q 2.260477723681048 -1.5620187980652858 2.2765068055904782 -1.5617570097141837 L 2.27742824281163 -1.5417782471537178 Q 2.2573573365290485 -1.5428546861886128 2.228365094885844 -1.5420180712819544 Q 2.1993728532426395 -1.5411814563752964 2.170403647529964 -1.5398453724046264 Q 2.1314450605370556 -1.5380485698233808 2.097504200114792 -1.5359826574834115 Q 2.063563339692529 -1.533916745143442 2.042677782726155 -1.5309513598051863 L 2.041756345505003 -1.5509301223656522 Q 2.092610046312076 -1.5552776635356353 2.10588106625801 -1.5714062105748026 Q 2.1191520862039432 -1.58753475761397 2.096823658729541 -1.6375591649220065 L 1.8881234519715897 -2.1254620483928757 L 1.903507527826214 -2.1391853938341 L 1.7505167747481867 -1.6796488561435499 Q 1.7363766391421172 -1.6389541812456967 1.7346468009371308 -1.6113451671418833 Q 1.7329169627321444 -1.5837361530380698 1.7421450865972636 -1.5681447538086866 Q 1.751373210462383 -1.552553354579303 1.7721739451142635 -1.5465052608348204 Q 1.7929746797661443 -1.5404571670903378 1.823987833595924 -1.5408864566550995 L 1.8249092708170758 -1.5209076940946336 Q 1.7968468595103082 -1.521615558241068 1.7663562106750688 -1.5207098355428232 Q 1.7358655618398295 -1.5198041128445787 1.7098931705112237 -1.5186062444570816 Q 1.6849197173106412 -1.5174544479306422 1.6674613360007624 -1.5161487212981228 Q 1.6500029546908834 -1.5148429946656035 1.6351110264926492 -1.5121540404936933 L 1.6341895892714975 -1.5321328030541592 Q 1.6539379925266755 -1.5380489309154273 1.6740633637855995 -1.5574967953660674 Q 1.6941887350445235 -1.5769446598167076 1.7090974494733284 -1.622680097215735 L 1.9159283617579095 -2.238863490146385 Q 1.9199241142700028 -2.2390477775906152 1.923919866782096 -2.239232065034846 Q 1.927915619294189 -2.239416352479076 1.9319113718062824 -2.2396006399233066 M 2.0733623643745966 -1.8206727025624296 L 2.0742838015957483 -1.8006939400019637 L 1.7766002394448053 -1.7869645254068045 L 1.7856681835038866 -1.8074040065778463 L 2.0733623643745966 -1.8206727025624296 M 3.2214109465443714 -2.113722711138357 L 3.2181095233309254 -2.093997077947868 Q 3.184410875746422 -2.098623215751202 3.166077984160374 -2.095101130276059 Q 3.147745092574326 -2.0915790448009153 3.138938657305414 -2.0753095427232715 Q 3.1301322220365018 -2.0590400406456273 3.1240245890916265 -2.022547619243223 L 3.0421492933981606 -1.5333519161190974 Q 3.0362067316139574 -1.4978457763762172 3.0391531406790024 -1.4791022795407434 Q 3.0420995497440475 -1.4603587827052693 3.0583690518216917 -1.4515523474363572 Q 3.0746385538993355 -1.442745912167445 3.107841988001822 -1.4351609293855379 L 3.104540564788376 -1.415435296195049 Q 3.0821862289406585 -1.421204496209561 3.048242047267401 -1.4273925920825177 Q 3.014297865594144 -1.4335806879554747 2.979778007510788 -1.4393581785790055 Q 2.941313022789335 -1.4457959538452256 2.9076969107851673 -1.4509152324783219 Q 2.8740807987809998 -1.4560345111114184 2.853038741609642 -1.4575284421664878 L 2.856340164823088 -1.477254075356977 Q 2.890203883568264 -1.4736142192131672 2.9084542395739756 -1.4766431638585484 Q 2.9267045955796873 -1.4796721085039297 2.9355935664289357 -1.4964347514113359 Q 2.944482537278184 -1.513197394318742 2.950425099062387 -1.5487035340616222 L 3.0412142374321576 -2.0911584468000677 L 3.0446641505882384 -2.0875393171788055 L 2.6944083202823688 -1.4790084195764353 L 2.6786278137299777 -1.4816495581471922 L 2.5372160188061468 -2.1633442876679805 L 2.450058445971167 -1.6425875714390725 Q 2.4441158841869637 -1.6070814316961923 2.44714275618009 -1.5857896951315713 Q 2.450169628173217 -1.56449795856695 2.4679990156682288 -1.552895676827882 Q 2.4858284031632407 -1.5412933950888144 2.52396324556335 -1.5328830565035454 L 2.5206618223499033 -1.5131574233130565 Q 2.503238894799808 -1.518101267524207 2.4747192622539353 -1.5233814720134662 Q 2.4461996297080626 -1.5286616765027254 2.4205563065604268 -1.5329535266802055 Q 2.3958992650723157 -1.5370803056970133 2.370666547174106 -1.540796479464395 Q 2.3454338292758967 -1.5445126532317766 2.3283368987426365 -1.545346299644157 L 2.3316383219560826 -1.5650719328346459 Q 2.3655020407012586 -1.5614320766908363 2.3841650746086507 -1.5669267254850285 Q 2.4028281085160432 -1.572421374279221 2.4121297572669724 -1.5916497213354381 Q 2.421431406017901 -1.6108780683916555 2.4273739678021045 -1.6463842081345357 L 2.5075985518888473 -2.1257170946634165 Q 2.5137061848337225 -2.162209516065821 2.5106772401883415 -2.180459872071533 Q 2.5076482955429604 -2.1987102280772444 2.491461329045652 -2.208009804175919 Q 2.4752743625483444 -2.2173093802745933 2.4419058572851857 -2.223908081396976 L 2.445207280498632 -2.243633714587465 Q 2.461808997549875 -2.2398412231965112 2.4867941087070764 -2.234645626939843 Q 2.511779219864277 -2.2294500306831746 2.5364362613523888 -2.2253232516663672 Q 2.5581344578619265 -2.2216916861315763 2.581477148021423 -2.2187987955153012 Q 2.60481983818092 -2.215905904899026 2.6207654158939833 -2.214251047987794 L 2.7459387985239916 -1.5869834621195604 L 2.727851441026697 -1.581899418574794 L 3.0493027243051007 -2.1394862481167656 Q 3.061138104219394 -2.137505394188698 3.0724803433039254 -2.1356070758409667 Q 3.083822582388456 -2.1337087574932347 3.0956579623027496 -2.1317279035651673 Q 3.1301778203861055 -2.125950412941636 3.164369608800371 -2.121241739557966 Q 3.198561397214637 -2.116533066174296 3.2214109465443714 -2.113722711138357" fill="#173054" fill-rule="nonzero"></path></g><g><path d=" M -0.9832594729371106 -0.06585955297696244 Q -0.9606243362443789 -0.06714430466555821 -0.9376503060466754 -0.07452291811762435 Q -0.9146762758489722 -0.08190153156969071 -0.891363352146297 -0.09537400678522745 Q -0.868050428443622 -0.10884648200076419 -0.8457187740902166 -0.12754266379919632 Q -0.823387119736811 -0.14623884559762845 -0.8036089860910617 -0.1713948673318153 Q -0.7461287851831027 -0.24450455549679573 -0.7471503463697757 -0.30064238955495903 Q -0.7481719075564487 -0.35678022361312234 -0.7961255739872423 -0.39448229087533193 Q -0.8291428525133625 -0.420441091285378 -0.8606802356808108 -0.41915911509622655 Q -0.892217618848259 -0.4178771389070751 -0.9312044377990644 -0.39255860916901325 Q -0.9701912567498697 -0.3672400794309514 -1.0247978016141805 -0.3236726000686791 Q -1.0843488798899286 -0.2738161152728601 -1.1356373120358136 -0.24417666979867925 Q -1.1869257441816987 -0.2145372243244983 -1.2349474574443389 -0.21413095431481066 Q -1.282969170706979 -0.21372468430512304 -1.3332812141753525 -0.2532809515966217 Q -1.3718013724558262 -0.2835662187416753 -1.3883586300546227 -0.3207530069978167 Q -1.4049158876534191 -0.35793979525395814 -1.4027686369554506 -0.39950166858084357 Q -1.400621386257482 -0.44106354190772906 -1.380612697776011 -0.48511921560875704 Q -1.3606040092945402 -0.5291748893097851 -1.3259922754144788 -0.573197927344612 Q -1.2919986082108472 -0.6164348397002456 -1.2517457957404257 -0.649026419720568 Q -1.211492983270004 -0.6816179997408903 -1.165992155048819 -0.703087155084923 Q -1.120491326827634 -0.7245563104289557 -1.0688723276751102 -0.7335828782424576 L -1.0456954976361281 -0.6708386789141998 Q -1.0731612780721587 -0.6682636245381197 -1.1032972443834281 -0.6582474608770155 Q -1.1334332106946978 -0.6482312972159111 -1.1645261371873685 -0.631335146112143 Q -1.1956190636800395 -0.6144389950083748 -1.224692506640102 -0.5895947821118472 Q -1.2537659496001645 -0.5647505692153195 -1.2784886166573513 -0.5333055420475861 Q -1.3310242841538729 -0.4664848593161523 -1.3360125552292885 -0.4099838225851491 Q -1.3410008263047042 -0.35348278585414594 -1.2930471598739106 -0.31578071859193635 Q -1.2584576299894037 -0.28858578482903097 -1.2227916992564682 -0.2910740342042849 Q -1.1871257685235328 -0.29356228357953884 -1.1440944315086221 -0.32078918268151474 Q -1.1010630944937114 -0.34801608178349064 -1.0452204162765415 -0.3931558125041496 Q -0.9861193456744594 -0.44082197926515226 -0.9380893059134863 -0.4679349886989895 Q -0.8900592661525133 -0.4950479981328267 -0.8471772299713866 -0.49377090261543327 Q -0.8042951937902599 -0.49249380709803997 -0.7594860300762397 -0.457264006541549 Q -0.7076017352494794 -0.416471605897191 -0.6919201838301468 -0.3628004875458577 Q -0.6762386324108141 -0.3091293691945244 -0.6929944795062616 -0.249795638584407 Q -0.7097503266017091 -0.19046190797428963 -0.7554872606575045 -0.13228860771398265 Q -0.7845363944496988 -0.09534070079189583 -0.817036288797437 -0.06937424421064742 Q -0.8495361831451751 -0.04340778762939901 -0.8850097457074786 -0.027411651872962906 Q -0.9204833082697823 -0.011415516116526803 -0.9602507019008923 -0.00451954600432769 L -0.9832594729371106 -0.06585955297696244 M -1.7915898355574051 0.302741029989148 L -1.8461450930930212 0.2732838767793992 L -1.6195150595276957 -0.1464396368413884 L -0.9947693683940285 0.19089227894767058 L -1.217123363590197 0.6026964809907074 L -1.271678621125813 0.5732393277809587 L -1.0825827021341998 0.22302977134264945 L -1.3078431203457754 0.10140023550884797 L -1.4727081552454986 0.4067336930065697 L -1.5246236422551978 0.3787018859198733 L -1.3597586073554746 0.07336842842215152 L -1.5982178781966347 -0.05538783802691183 L -1.7915898355574051 0.302741029989148 M -2.1463583892278595 1.1491206238821827 L -1.5919790276677093 1.3126673250906151 L -1.9499112614565335 0.9391241334581849 L -1.937461339565234 0.8969222443428794 L -1.4338084290941562 0.7765115065575288 L -1.9881877906543064 0.6129648053490964 L -1.9683810967363302 0.5458254363020194 L -1.2873960678302634 0.7467219031843497 L -1.3077686672887532 0.8157795399184862 L -1.852285632605308 0.9439445682313987 L -1.4650904075515359 1.3490579569209835 L -1.4851800542397688 1.4171564598115904 L -2.166165083145836 1.21625999292926 L -2.1463583892278595 1.1491206238821827 M -2.205222365335254 1.5227596470423201 L -1.501045999813564 1.6135101084222114 L -1.509993228400314 1.6829359472764625 L -2.2141695939220036 1.5921854858965712 L -2.205222365335254 1.5227596470423201 M -1.667627470948722 1.9487578008853683 L -2.2485519225797175 1.9581269789297329 L -2.249680739211569 1.888136081142866 L -1.5397730616590612 1.8766866553055186 L -1.538837756449813 1.9346791134717798 L -2.1232460841552787 2.410165082253721 L -1.532322932840445 2.4006346446905207 L -1.5311941162085938 2.4706255424773875 L -2.2401019237927176 2.4820588423628513 L -2.2411501106651506 2.4170672944179032 L -1.667627470948722 1.9487578008853683 M -1.4544749521920957 2.879945748961076 L -1.4416492310093971 2.9375348180292913 L -2.070541625747309 3.379823587772334 L -2.0866281235018804 3.3075932299579622 L -1.889936479699583 3.1695338323844897 L -1.9592823281280718 2.8581624250495623 L -2.195755446107214 2.817598099919927 L -2.2120593289665766 2.7443916561891446 L -1.4544749521920957 2.879945748961076 M -1.8397299159736735 3.14196027695839 L -1.5282098292987973 2.9260778191298815 L -1.9023368261536258 2.8608475330321865 L -1.8397299159736735 3.14196027695839 M -1.9850740079290754 3.6178525698555917 L -1.3327424995294612 3.3375605736282927 L -1.2143092616869406 3.6131936053464395 Q -1.1961494985510872 3.6554573368765553 -1.1986047137665174 3.6978716259575473 Q -1.2010599289819472 3.740285915038539 -1.219669016489707 3.779301320484702 Q -1.2382781039974669 3.818316725930866 -1.2684507358851593 3.8481514755522355 Q -1.2986233677728518 3.877986225173605 -1.3362932154409985 3.894172101012083 Q -1.3831508308330835 3.9143057514453115 -1.4321939460505693 3.9141545900600097 Q -1.4812370612680552 3.9140034286747083 -1.5237337410236287 3.893624954498455 Q -1.5662304207792022 3.873246480322201 -1.5943675065579437 3.8330929698420486 L -1.777421064245189 4.101129152134742 L -1.8086084835437195 4.028545787115631 L -1.6338168049088746 3.771678371743394 L -1.716720071398639 3.578735249540691 L -1.9574395857658207 3.6821669439231592 L -1.9850740079290754 3.6178525698555917 M -1.659755911510222 3.554259047053237 L -1.568167540912006 3.767415258248604 Q -1.551586887614053 3.8060038826891445 -1.518216920605268 3.8254060810654265 Q -1.484846953596483 3.8448082794417084 -1.4436816078206385 3.845623329842088 Q -1.402516262044794 3.846438380242468 -1.3639276376042533 3.8298577269445153 Q -1.324420236391319 3.8128822961870874 -1.2985830446587083 3.7805567718545676 Q -1.2727458529260975 3.7482312475220483 -1.2649036429801763 3.70948850958106 Q -1.2570614330342549 3.6707457716400715 -1.2728525314132577 3.6339947007443185 L -1.3620722372546235 3.4263511501833146 L -1.659755911510222 3.554259047053237 M -0.7902578793076394 4.324957381021918 L -0.7545974420796759 4.371960925746869 L -1.141931133138424 5.036112724487794 L -1.1866577832209544 4.977159126019211 L -1.0654030933232166 4.76968551281068 L -1.2582112200303406 4.5155477031961135 L -1.4900737067537952 4.577230660732339 L -1.53540477102663 4.51748039201418 L -0.7902578793076394 4.324957381021918 M -1.0312568566414386 4.723696008350727 L -0.8380568282539963 4.3976227818645715 L -1.2053281434491243 4.494254976472999 L -1.0312568566414386 4.723696008350727 M -0.20580031194117077 5.026537900574695 L -0.3908651881685301 4.854027055736023 L -0.8327111464905028 5.328027213029813 L -0.8839148671858197 5.280296939754291 L -0.44206890886384687 4.806296782460501 L -0.6271337850912062 4.63378593762183 L -0.5848584001900299 4.588434070720264 L -0.16352492703999433 4.981186033673128 L -0.20580031194117077 5.026537900574695 M 0.3259165992099542 5.380253465667114 L 0.11409402026042259 5.2419053719065944 L -0.24025208549774568 5.784439091903814 L -0.2988591231517663 5.746160963195369 L 0.05548698260640206 5.2036272431981505 L -0.1563355963431295 5.0652791494376315 L -0.12243211091565043 5.01337005894407 L 0.3598200846374333 5.328344375173553 L 0.3259165992099542 5.380253465667114 M 0.6534798215652454 6.165383124413566 L 0.6289380086461572 6.2223190482108 L 0.19089872394807994 6.03350542301072 L 0.4719420654408636 5.381497263397229 L 0.9017164579748261 5.56674836736712 L 0.8771746450557381 5.623684291164355 L 0.5116827471315561 5.466141685651499 L 0.41034880991725675 5.701231951652982 L 0.7290063189114555 5.838586936861427 L 0.7056520130690974 5.8927678966039565 L 0.38699450407489866 5.755412911395512 L 0.2797230314769488 6.00427799767052 L 0.6534798215652454 6.165383124413566 M 1.093373911079762 5.760388734734065 L 0.9704624666967315 6.32823887063233 L 0.9020467876728443 6.313430262875338 L 1.0522483806366165 5.619499804204482 L 1.1089356575421232 5.631769793488846 L 1.4391500951563005 6.3089539820159795 L 1.564177054933187 5.731330177685732 L 1.6325927339570743 5.7461387854427235 L 1.4826026925326876 6.439091877270381 L 1.4190738477247924 6.425341027210318 L 1.093373911079762 5.760388734734065 M 1.822805789546688 6.472686062646203 L 1.8286539215728679 5.762710148018247 L 2.0696457461155973 5.76469521818488 Q 2.1826419128099057 5.765625977225666 2.257748103349578 5.813746244708489 Q 2.33285429388925 5.8618665121913125 2.3701899419565104 5.942676780000531 Q 2.407525590023771 6.02348704780975 2.4067183830680445 6.121483723349947 Q 2.405828808055612 6.229480059659552 2.363671271408915 6.309135518379481 Q 2.3215137347622186 6.388790977099411 2.244653910426739 6.432159368850999 Q 2.167794086091259 6.475527760602587 2.063797614089417 6.474671132812836 L 1.822805789546688 6.472686062646203 M 2.3367207576821896 6.120907146952999 Q 2.337420886164197 6.035910030413032 2.306465583914827 5.969652809956314 Q 2.275510281665457 5.903395589499596 2.2158211972616604 5.865402653274076 Q 2.1561321128578634 5.827409717048557 2.069135064164015 5.826693114955208 L 1.898140865007141 5.8252846211855225 L 1.8933140968841249 6.411264742272822 L 2.0643082960409993 6.412673236042508 Q 2.152305310811788 6.413398074941527 2.2126245108493916 6.374893606281077 Q 2.272943710886995 6.336389137620627 2.3044904068492595 6.270146734479856 Q 2.3360371028115234 6.203904331339085 2.3367207576821896 6.120907146952999 M 2.752339056348577 5.708936603189286 L 2.8103482132354958 5.6981691653664415 L 3.2299682494365216 6.3424082709931096 L 3.1572110018156403 6.3559131930082025 L 3.026241279268725 6.154431353191349 L 2.7125985496597904 6.212648517013168 L 2.6636415652523633 6.447527663975453 L 2.589901111582551 6.461215084936696 L 2.752339056348577 5.708936603189286 M 3.0004725404475874 6.103275003638552 L 2.795816945351863 5.784267029763266 L 2.717309198355508 6.155834700129724 L 3.0004725404475874 6.103275003638552 M 3.3291514758499408 5.700687581409952 L 3.548177919625183 6.238821781147499 L 3.4833424738736714 6.265210509313191 L 3.2156853739073683 5.607593845262143 L 3.2694061718157634 5.585728899067713 L 3.9241982403056785 5.958377992777463 L 3.7014019782210514 5.410981586503986 L 3.7662374239725636 5.384592858338294 L 4.033517542107928 6.041283301735749 L 3.9733131996243816 6.065787120746748 L 3.3291514758499408 5.700687581409952 M 4.09331907604096 5.604338311866397 Q 4.057106569199759 5.5503600352333295 4.0409716391485135 5.485922747641117 Q 4.024836709097267 5.421485460048906 4.031853967449576 5.354762090190835 Q 4.038871225801885 5.288038720332764 4.074196609943834 5.227612176205007 Q 4.109521994085783 5.16718563207725 4.175956796095711 5.12261639288808 Q 4.254848123482503 5.06969042135094 4.335137011487492 5.068209049377978 Q 4.415425899492482 5.066727677405014 4.479883673607248 5.105369563437787 L 4.453151673880819 5.164245706234562 Q 4.407867240279327 5.138028916320614 4.363481338428706 5.134690995274963 Q 4.319095436578084 5.131353074229311 4.2796078672073055 5.143393915777475 Q 4.240120297836527 5.155434757325637 4.207733331856687 5.177162261430357 Q 4.154585490248743 5.212817652781694 4.128100619009209 5.261292404925726 Q 4.101615747769675 5.309767157069757 4.097473582747264 5.363724014547998 Q 4.093331417724852 5.417680872026238 4.1084625855156345 5.470749674172953 Q 4.123593753306418 5.523818476319668 4.153677989759108 5.56866196767637 Q 4.18654780366112 5.617657634158693 4.233240740616292 5.651358815718103 Q 4.2799336775714645 5.685059997277513 4.332949631305315 5.699466893185037 Q 4.385965585039165 5.713873789092562 4.439891013259368 5.707199345949669 Q 4.493816441479572 5.700524902806776 4.541151237911646 5.6687693198844915 Q 4.574368638916611 5.646484700289907 4.601447293113719 5.611459759363854 Q 4.628525947310828 5.576434818437803 4.642680476521784 5.532017487329145 Q 4.656835005732741 5.487600156220486 4.649477263751698 5.437143604287755 L 4.714355959904836 5.429743956629331 Q 4.725613510314931 5.48601355373793 4.708026772284212 5.542366962201296 Q 4.690440034253494 5.598720370664661 4.654105649641409 5.645975661319371 Q 4.617771265029324 5.69323095197408 4.572927773672621 5.72331518842677 Q 4.5123060168385605 5.763984619186887 4.444100342375253 5.77180996077722 Q 4.375894667911946 5.779635302367552 4.30969174607603 5.760829102847511 Q 4.243488824240114 5.742022903327471 4.187067319051002 5.701000180938593 Q 4.13064581386189 5.659977458549713 4.09331907604096 5.604338311866397 M 5.3030377847682795 5.0091166258144595 L 5.346328291138947 5.053500542475467 L 5.004858480698618 5.386558147940116 L 4.509112359357107 4.878290715209228 L 4.844139343185354 4.5515172155080625 L 4.887429849556021 4.59590113216907 L 4.602513739377298 4.873798253709804 L 4.78126163664973 5.05706087734235 L 5.029668396026658 4.814773688461358 L 5.070864200476163 4.857009996251671 L 4.822457441099236 5.099297185132663 L 5.011678847977475 5.293297853118678 L 5.3030377847682795 5.0091166258144595 M 6.046428165488328 4.020241535673934 L 5.543484014464501 3.735406178053217 L 5.8075311371308915 4.180298431314161 L 5.785848168730698 4.218584837274452 L 5.268011756834776 4.221817562866918 L 5.770955907858603 4.506652920487635 L 5.736460276312841 4.567563111788099 L 5.11865690740814 4.217678848966803 L 5.154138128426638 4.1550283664863255 L 5.713533027143798 4.153496279929351 L 5.428132001847259 3.6712274184426446 L 5.463120428129388 3.609447081552174 L 6.080923797034089 3.959331344373471 L 6.046428165488328 4.020241535673934 M 5.595614923478116 3.213818867167457 L 5.612931211605234 3.1574172167882466 L 6.378244377143181 3.0837914152354866 L 6.35652564288205 3.1545324682534788 L 6.117300814206127 3.1773246016546146 L 6.023675459756114 3.4822758977727153 L 6.209190445597076 3.6344244765647216 L 6.187178214927011 3.7061214897586323 L 5.595614923478116 3.213818867167457 M 6.060027061987645 3.176477661977934 L 5.68251505376255 3.210162727598416 L 5.975500096214592 3.4517941926425513 L 6.060027061987645 3.176477661977934 M 5.85538443584565 2.698745654802783 L 6.433771571846751 2.7537849217714014 L 6.427140334862581 2.823470118879968 L 5.720333335618549 2.7562104294690917 L 5.72582778911972 2.698471266150565 L 6.35931054801822 2.290648272465382 L 5.770968383858751 2.234661685927596 L 5.777599620842922 2.16497648881903 L 6.483411117271117 2.232141446272989 L 6.47725354007153 2.2968491293023723 L 5.85538443584565 2.698745654802783 M 5.746616320653187 1.7497032020437115 L 5.740458084717898 1.6910254709171137 L 6.415788754192035 1.323529230300133 L 6.423512643331211 1.3971250286623063 L 6.212327921228532 1.5117941751247006 L 6.245624146031199 1.829051738334611 L 6.475909837221302 1.8963830121462406 L 6.483738103240737 1.9709733483241194 L 5.746616320653187 1.7497032020437115 M 6.159298371448901 1.5334475085902342 L 5.825141492013486 1.7123027012070153 L 6.189358912963534 1.8198743995132882 L 6.159298371448901 1.5334475085902342 M 6.284951346410607 0.8247808676079912 Q 6.30568432525011 0.8926862693698595 6.29432653589057 0.9599339505258988 Q 6.28296874653103 1.027181631681938 6.246375833237515 1.085404983497969 Q 6.209782919944001 1.143628335314 6.155726754715947 1.1857493633265905 Q 6.101670589487894 1.227870391339181 6.036634430053993 1.2477273288192678 Q 5.967772614182802 1.268752321445242 5.898929566362966 1.264155064994286 Q 5.830086518543132 1.25955780854333 5.769417206472265 1.2320762770567515 Q 5.708747894401398 1.2045947455701729 5.663491058042746 1.1556782988185315 Q 5.6182342216840935 1.1067618520668903 5.597501242844591 1.038856450305022 Q 5.566839795265045 0.9384329688262025 5.588692692058752 0.8627530447926546 Q 5.6105455888524585 0.7870731207591065 5.666609693655639 0.7344060897755968 L 5.716809346060716 0.7755399553660025 Q 5.663614483585501 0.8273309449900965 5.650610432025412 0.8908989766020835 Q 5.637606380465324 0.9544670082140704 5.658047345518354 1.0214159958666165 Q 5.6752761589201945 1.0778444283166198 5.71305716651066 1.1159737538476224 Q 5.750838174101126 1.154103079378625 5.800936035432697 1.1743565800637579 Q 5.851033896764268 1.1946100807488904 5.906834085821597 1.1958705969790182 Q 5.9626342748789245 1.197131113209146 6.017149879110284 1.1804863273802497 Q 6.07453472566961 1.162965500191938 6.119862604788904 1.1282144804292513 Q 6.165190483908198 1.0934634606665647 6.194077159345606 1.0459575664830651 Q 6.222963834783013 0.9984516722995654 6.231276897708197 0.9452032640153554 Q 6.239589960633381 0.8919548557311452 6.223237188590956 0.8383956656091083 Q 6.204256292470285 0.7762287485031725 6.1562360343019495 0.7302471782228268 Q 6.108215776133614 0.6842656079424813 6.027702886016702 0.6534325976284974 L 6.098477530106537 0.6318235774295794 Q 6.24465344387749 0.6927957205215429 6.284951346410607 0.8247808676079912 M 5.931447970298396 0.6943225866241143 L 5.977586148560951 0.8454360158970043 L 5.925939786657557 0.861204760366485 L 5.862572794993163 0.6536628986435917 L 6.196361319146572 0.551750087164911 L 6.213590132548412 0.6081785196149143 L 5.931447970298396 0.6943225866241143 M 5.800927766618237 -0.11109115634014671 L 5.855850564888615 -0.13985721672650053 L 6.077163642377176 0.28269398932140816 L 5.4482090170228465 0.6121117776167505 L 5.231071657977466 0.19753323583389665 L 5.2859944562478445 0.16876717544754283 L 5.4706540051795995 0.5213361062799698 L 5.697432010941161 0.402560115007283 L 5.536434866520761 0.09516961501016707 L 5.588700110036121 0.06779546077153997 L 5.74969725445652 0.37518596076865596 L 5.989763033993173 0.24945043875733514 L 5.800927766618237 -0.11109115634014671 M 5.704911434762887 -0.37077996450953143 L 5.144003230195139 0.06451532153040013 L 4.960075644544464 -0.17248814518836647 Q 4.931873414744693 -0.2088286767519107 4.92358614012113 -0.25049786296083054 Q 4.915298865497566 -0.29216704916975045 4.923501120421951 -0.33460786695352307 Q 4.931703375346338 -0.37704868473729575 4.9534059065390235 -0.41351099596177093 Q 4.975108437731709 -0.4499733071862462 5.007498911516608 -0.4751100772251718 Q 5.047789500858798 -0.5063777667857865 5.0952953139339066 -0.5185616792966681 Q 5.142801127009016 -0.5307455918075494 5.189056249538618 -0.5217060320963985 Q 5.235311372068221 -0.5126664723852477 5.272639901329621 -0.48087683723193414 L 5.3824250679220365 -0.7863260428231023 L 5.43085933214338 -0.7239151299204937 L 5.326262660554534 -0.4313531086454572 L 5.455011970510006 -0.2654506819423205 L 5.661994998111062 -0.42608077341057693 L 5.704911434762887 -0.37077996450953143 M 5.406031254054795 -0.22743898090784764 L 5.263793921151605 -0.4107216618370272 Q 5.2380440591605115 -0.4439021471776545 5.200867942861502 -0.45429139050537526 Q 5.163691826562494 -0.464680633833096 5.1236438300357765 -0.4551198820741584 Q 5.083595833509059 -0.44555913031522076 5.050415348168432 -0.41980926832412624 Q 5.016444851272075 -0.39344631438086275 4.999564722555252 -0.3556632327899774 Q 4.98268459383843 -0.3178801511990921 4.984834822280012 -0.2784102067140917 Q 4.986985050721595 -0.23894026222909137 5.0115087288083515 -0.20733979999992252 L 5.150067509998527 -0.028797188405118357 L 5.406031254054795 -0.22743898090784764" fill="#173054" fill-rule="nonzero"></path></g><g clip-path="url(#SvgjsClipPath1004)"><g clip-path="url(#a561c0b04-2c04-4520-bba3-c94e73c5dc1f548d62e8-e5ec-4d18-9ed3-8fef146e69de)"><path d=" M 4.229413836020132 2.1148368589341953 C 4.229413836020132 3.2825650637539323 3.2825942789160547 4.2295437769442605 2.114706918010066 4.2295437769442605 C 0.9466604010178276 4.2295437769442605 0 3.2825650637539323 0 2.1148368589341953 C 0 0.9469494980282075 0.9466604010178276 -0.000029215162120584434 2.114706918010066 -0.000029215162120584434 C 3.2825942789160547 -0.000029215162120584434 4.229413836020132 0.9469494980282075 4.229413836020132 2.1148368589341953" fill="#173054" transform="matrix(1,0,0,1,0,0)" fill-rule="nonzero"></path></g><g clip-path="url(#a561c0b04-2c04-4520-bba3-c94e73c5dc1f548d62e8-e5ec-4d18-9ed3-8fef146e69de)"><path d=" M 0.8701063235313486 1.666653320052857 L 2.09958708981627 1.1775666670051463 L 3.335593255637462 1.6664941639666064 L 2.0925842220212494 2.168949928259357 Z M 1.2775459043325654 2.031279913652696 C 1.2692390809703467 2.027030785501538 1.2601262471805885 2.024589847879281 1.2508076818424856 2.0241178897714245 C 1.2160324561552265 2.0232218823508625 1.1870090745513573 2.050471218624422 1.1857128425660413 2.085233826891607 L 1.2487386527212294 2.0874620120991136 L 1.1858719986522916 2.0855521390641076 C 1.182688876927282 2.181045790814393 1.1842804377897869 2.271764759977164 1.1858719986522916 2.362802041312436 C 1.187622715601047 2.4500195765776964 1.1890551203773012 2.537237111842957 1.1861903108247926 2.6289110175232304 C 1.1844056435610537 2.6418965283323006 1.1869805995815337 2.6551071722634583 1.1935114907923146 2.6664718538783427 L 1.2487386527212294 2.6362321974907523 L 1.1935114907923146 2.6664718538783427 C 1.2395640963379828 2.748882726623752 1.302864531036512 2.8203807304813533 1.3790874873603687 2.8760804194702185 C 1.5454055974921155 3.0002221667455893 1.7753861421240522 3.0662719425395366 2.0128470228097615 3.0732748103345573 C 2.2485571865467158 3.080595990302079 2.4933392471999465 3.0301435109606785 2.6916477306680386 2.9212807479653535 C 2.803056991043371 2.8601648108451707 2.9001422036561615 2.7809050798924346 2.9738314715901315 2.6830240868483917 C 2.982840852207913 2.6717745013705745 2.987777276435304 2.657806664636252 2.9878372071801738 2.643394221372024 L 2.9878372071801738 2.088894416875368 C 2.9880360254524474 2.0799081633574286 2.986411779733822 2.070974811904989 2.983062524592659 2.062633662644039 C 2.9692146021665167 2.0306893860272894 2.932227438850216 2.015851925119215 2.9001422036561615 2.0293700406176898 L 2.9246522409387343 2.0874620120991136 L 2.9001422036561615 2.0293700406176898 L 2.084785573794976 2.375852840384975 Z M 2.0601163804261526 2.502063616781602 L 2.0601163804261526 2.502222772867852 C 2.077207061448934 2.509538287375199 2.0966521077458298 2.508956100360322 2.1132745132338115 2.5006312120053478 L 2.861785586869797 2.182637351676898 L 2.861785586869797 2.6219081497282097 C 2.7981845124478864 2.6995337491724056 2.719794626012927 2.7637496188744737 2.631168417892859 2.810826424107524 C 2.4525952891198246 2.909025729324067 2.230572548800412 2.9543852139054527 2.0161893006210216 2.9478598143691834 C 1.8037159254766366 2.941175258746663 1.5996778229035276 2.8834015994377404 1.4546866283293443 2.775016304701167 C 1.3961171885891694 2.7315666931547873 1.3475745822827745 2.6795226529508813 1.3120827750489186 2.620157432779455 C 1.3146292724289261 2.5310300244791883 1.3130377115664214 2.4460406744214342 1.3114461507039168 2.36073301219118 C 1.3104912141864138 2.301845260278504 1.30921796549641 2.242639196193327 1.3098545898414118 2.181682415159395 Z M 3.3642413511625477 2.113404454157941 L 3.3642413511625477 1.7904767551557266 L 3.5284904321730384 1.724267823275529 L 3.5050944874942194 1.6656983835353543 L 3.5288087443455396 1.724267823275529 C 3.561117429854386 1.7110578681167399 3.5765555702206826 1.6744519682791303 3.563663927234394 1.6419841266840334 C 3.556867254317253 1.625506028514424 3.5434736982996324 1.6126320501009348 3.526739715224284 1.6064923194501775 L 2.1233013466675925 1.0510375784360186 C 2.1065033093455092 1.044448412288456 2.0876953046428848 1.045316474043962 2.071575618636188 1.0534249197297756 L 0.6792781761170287 1.6074472559676802 L 0.7026741207958486 1.665698383535354 L 0.6792781761170287 1.6071289437951792 C 0.6547639472650081 1.6171920649761902 0.6391044258778039 1.6414510255125618 0.640027434162744 1.667934263226612 C 0.6409504424476842 1.694417500940662 0.6582608883352604 1.7175273741457409 0.683416234359541 1.7258593841380339 L 2.068710809083678 2.2950015485697333 L 2.0925842220212494 2.2367504210020597 L 2.068551652997428 2.2950015485697333 C 2.08517633980899 2.301949485435157 2.1040030490417516 2.301310307035279 2.120118224942582 2.2932508316209783 L 3.238667199110923 1.8412475466696283 L 3.238826355197173 2.113404454157941 C 3.199802910734551 2.1236670691952018 3.1639662632443337 2.1435276845218416 3.1345791187031113 2.1711781134668637 C 3.089182793986488 2.2130391338351463 3.063286491493502 2.271925826141024 3.0631180359766486 2.333676477528599 C 3.0631180359766486 2.397338912028789 3.09049288281173 2.4547942591652108 3.134419962616861 2.4966523098490856 C 3.1632272142281974 2.523231376252915 3.198719021462053 2.543603355292976 3.238667199110923 2.553948500899257 L 3.238667199110923 2.665994385619591 C 3.2374980513717366 2.6892380941171465 3.249233281038861 2.7112344095735503 3.269190612408263 2.7232069538214216 C 3.289147943777665 2.735179498069293 3.314078918668306 2.735179498069293 3.3340362500377085 2.7232069538214216 C 3.3539935814071105 2.7112344095735503 3.3657288110742347 2.6892380941171465 3.3645596633350485 2.665994385619591 L 3.3645596633350485 2.553948500899257 C 3.403504929822044 2.5438102432550243 3.439255355475761 2.523991477425552 3.468488587656609 2.4963339976765844 C 3.512733979634241 2.4547942591652108 3.539949670383072 2.397338912028789 3.539949670383072 2.333676477528599 C 3.539949670383072 2.2700140430284086 3.5127339796342416 2.2123995398057366 3.468488587656609 2.1711781134668637 C 3.439999648217774 2.144121578804283 3.404189528811417 2.1239087558504726 3.3642413511625477 2.113404454157941 M 3.3825443010813525 2.2625337069746365 C 3.4023533936153596 2.2809135888362038 3.4136978801956523 2.3066546319904724 3.413898050072696 2.333676477528599 C 3.413710990255822 2.3606550719572965 3.4023606306272054 2.386351825228173 3.3825443010813516 2.4046600919963117 C 3.3605451383096874 2.424986246417932 3.3316443584736772 2.436193832299219 3.301693009266111 2.436013840987654 C 3.2716720989246566 2.436315023659501 3.2426784826195276 2.425093525796809 3.220682561364619 2.404660091996311 C 3.2008662318187655 2.386351825228172 3.1895158721901495 2.3606550719572956 3.1893288123732755 2.333676477528599 C 3.1893288123732755 2.3059833185210157 3.2014246749283113 2.280836656893441 3.220682561364619 2.2625337069746365 C 3.242753600047165 2.2422579235305182 3.2717243068551842 2.2311591262268564 3.301693009266111 2.2314982701557935 C 3.331606931278539 2.231199713966283 3.3605134943528805 2.2422957371936385 3.3825443010813525 2.2625337069746365" fill="#3a868f" transform="matrix(1,0,0,1,0,0)" fill-rule="nonzero"></path></g></g><g transform="matrix(0.9393928107728043,-0.3428427439342567,0.3428427439342567,0.9393928107728043,0.4370014496125488,-0.0822714397667017)"><g clip-path="url(#SvgjsClipPath1005)"><path d=" M 0.12539640520065315 -1.2346529909504245 L 0.09891605877208182 -1.2098089409504245 C 0.07727315770065324 -1.1877097205932816 0.053728926272081756 -1.1675579234504245 0.02855531234351033 -1.1495886230932815 C 0.014529255914938921 -1.1401534152361386 -0.0019281987279182178 -1.1349910152361389 -0.018828144799346802 -1.1347236766647102 C -0.04121544551363249 -1.1345323913075673 -0.0628560419422039 -1.1427576616647102 -0.07946329837077537 -1.1577701052361387 C -0.08749497872791823 -1.164066389521853 -0.09402403194220393 -1.1720704141647103 -0.09858031087077535 -1.1812037138075673 C -0.10313658979934676 -1.1903347088075673 -0.10560486229934679 -1.2003645145218529 -0.1058053662279182 -1.2105694730932814 C -0.10619024158506107 -1.2238926134504244 -0.10161552551363251 -1.2368838852361388 -0.09296850551363248 -1.2470289230932816 C -0.08922346087077535 -1.2516958248789958 -0.08447128729934678 -1.255457002021853 -0.07906689979934678 -1.2580312880932816 C -0.07366481694220389 -1.2606055741647102 -0.06774879872791822 -1.261926134521853 -0.06176364122791822 -1.261893869521853 C -0.05286080587077535 -1.2612877484504244 -0.04419995801363252 -1.2587203763075672 -0.03640335122791821 -1.2543784291647102 C -0.028606744442203902 -1.2500341773789958 -0.021865664085061076 -1.2440236688075672 -0.016661780513632485 -1.2367732623789958 C -0.019869843370775353 -1.2373909066647102 -0.02312169444220391 -1.2377550402361388 -0.026387373370775347 -1.237856444521853 C -0.04040651587077537 -1.2381260877361386 -0.054040783013632465 -1.233274814521853 -0.06473663051363249 -1.2242129588075672 C -0.06973309622791823 -1.2203803377361386 -0.07378465837077536 -1.2154553159504244 -0.07658019015648965 -1.2098135502361387 C -0.07937572194220394 -1.2041740891647101 -0.08084377944220394 -1.1979676859504245 -0.08086913051363254 -1.19167140166471 C -0.08091291872791823 -1.1878595223789958 -0.08016621444220395 -1.1840799080932816 -0.07867971979934679 -1.180569937021853 C -0.07719322515648963 -1.1770599659504244 -0.0749969005136325 -1.1738956913075673 -0.0722267197993468 -1.1712753123789958 C -0.06960403622791822 -1.1685627477361387 -0.0664581987279182 -1.1664125159504244 -0.06298049265648964 -1.1649490677361387 C -0.059502786585061085 -1.16348792416471 -0.05576465587077534 -1.1627458291647101 -0.051991955513632504 -1.1627711802361387 C -0.0314668062279182 -1.1627711802361387 0.003649036986367482 -1.1884287691647102 0.05335326948636748 -1.2397462516647102 L 0.07522433020065317 -1.26217042666471 C 0.05363674055779605 -1.2757562963075673 0.03009250912922462 -1.2859543409504244 0.005416698057796099 -1.2924073409504244 C -0.019915936227918207 -1.3003629680932816 -0.04623726229934677 -1.3047325709504243 -0.07277983408506106 -1.3053824802361387 C -0.10865436572791823 -1.3064933180932816 -0.14357362290648962 -1.2937209873789959 -0.17026691833506105 -1.2697296552361388 C -0.18287216244220392 -1.2586604555932817 -0.19290888208506105 -1.24497318166471 -0.19967600490648962 -1.2296242602361387 C -0.2064431277279182 -1.2142753388075673 -0.20977748501363247 -1.1976335127361386 -0.20944584690648962 -1.1808626266647102 C -0.20949862322791818 -1.1730821523789958 -0.20849863869220392 -1.1653293338075672 -0.20647285762077533 -1.1578161980932815 C -0.24463774333506105 -1.1646679013075674 -0.2637201861922039 -1.1814157409504245 -0.2637201861922039 -1.2080574123789958 C -0.26302856287077536 -1.2260428452361387 -0.2578318236922039 -1.2435650448789959 -0.2486067992636325 -1.2590199798789958 C -0.23938154437077533 -1.2744749148789958 -0.2264232289779182 -1.2873647823789958 -0.21092081833506104 -1.2965096052361387 C -0.17438393233506105 -1.321858372021853 -0.13074344565648963 -1.3349556573789958 -0.08628504122791819 -1.3339139588075672 C -0.0481247647993468 -1.331263619521853 -0.010731934442203939 -1.3219021602361387 0.024176490914938897 -1.306258244521853 L 0.004725305200653174 -1.3251793623789958 C -0.014066752656489656 -1.3436741213075671 -0.03494912158506108 -1.35991724416471 -0.05750005194220392 -1.3735764014504244 C -0.07261850908506107 -1.3842351442004244 -0.09017066908506105 -1.3909243700932814 -0.10854835215648964 -1.3930280480932815 C -0.11783744565648965 -1.3933009178075673 -0.12690759808506105 -1.3901788181289958 -0.13406097904934677 -1.3842471283432816 C -0.13731720894220395 -1.3817021112361387 -0.1399470369064896 -1.3784449594861388 -0.14174880669220394 -1.3747254963789959 C -0.14355057647791822 -1.3710062637361387 -0.14447589058506105 -1.3669233584504243 -0.14445468787077534 -1.3627911338075673 C -0.14439246251363247 -1.3600693505932815 -0.1441230497636325 -1.3573590905932815 -0.14364829333506104 -1.3546787909504245 C -0.16849234333506105 -1.3640356409504244 -0.18091413787077534 -1.3760960674861387 -0.18091413787077534 -1.3908612228789958 C -0.18076710165648963 -1.3961865611289959 -0.17926585729934677 -1.401386757271853 -0.17655214033506106 -1.4059713833075673 C -0.17383865383506106 -1.4105557788789957 -0.17000211487077535 -1.4143743416289958 -0.16540435237077536 -1.4170654730932815 C -0.15418396815648963 -1.4245283675932816 -0.14091544783506108 -1.4283065990932815 -0.1274466540493468 -1.427874017628996 C -0.09306069122791821 -1.427874017628996 -0.04255905229934681 -1.3952863676289957 0.02406125877208176 -1.3301112980932817 L 0.042959330200653234 -1.3114667373789959 C 0.057010737700653236 -1.2976250523789958 0.07218911555779606 -1.2849748677361386 0.0883377480577961 -1.2736475480932816 C 0.0997457302006532 -1.2873302127361388 0.11381787948636751 -1.2985561280932816 0.12969456412922464 -1.3066362059504244 C 0.14557355341493894 -1.3147185884504244 0.1629298187720818 -1.31948919916471 0.18070783377208177 -1.3206622623789959 C 0.19750637555779604 -1.3212384230932814 0.21397996270065323 -1.3159331352361388 0.2272846659149389 -1.3056590373789958 C 0.23310388912922464 -1.3014323223789959 0.2378422348435103 -1.2958873516647103 0.24110560912922463 -1.2894781398789958 C 0.24437128805779607 -1.2830689280932814 0.24606980984351035 -1.2759775420218529 0.24606750520065312 -1.2687847516647102 C 0.2461182073435103 -1.2617855513075673 0.24451878520065318 -1.2548716227361387 0.24140060341493885 -1.2486052988075673 C 0.23828242162922464 -1.242338974878996 0.23372844734351028 -1.2368954084504244 0.22811433734351028 -1.2327170909504244 C 0.21526595341493882 -1.2227932988075674 0.19935008984351033 -1.2176816009504243 0.18312770877208173 -1.2182669802361388 C 0.16283071912922464 -1.2189099755932815 0.14300387662922465 -1.2245379134504244 0.12539640520065315 -1.2346529909504245 L 0.12539640520065315 -1.2346529909504245 Z M 0.13922426234351032 -1.2473515730932816 C 0.15185370520065317 -1.2421338616647102 0.1652851637720818 -1.2391170841647101 0.17893325877208177 -1.2384326052361387 C 0.1888639648435103 -1.2378034377361387 0.1987854523435103 -1.2398061723789957 0.2076952016292246 -1.2442403052361386 C 0.21074193948636744 -1.2459803105932816 0.21324939091493889 -1.2485269409504243 0.21494099877208173 -1.251601334521853 C 0.21663260662922457 -1.2546757280932817 0.21744153627208174 -1.2581580434504245 0.21728251591493886 -1.2616634052361386 C 0.2174323177006532 -1.2640003130932815 0.21699213091493896 -1.2663395255932817 0.21600113448636749 -1.2684621016647102 C 0.21501244270065312 -1.2705846777361387 0.21350059698636747 -1.2724237827361387 0.21161309448636745 -1.2738088730932815 C 0.20639999234351036 -1.2768901805932815 0.20036874198636745 -1.2783052313075673 0.19432827305779599 -1.2778650445218531 C 0.1726554116292246 -1.2752930630932815 0.1528539202006532 -1.2643390955932816 0.13915512305779604 -1.2473515730932816 L 0.13922426234351032 -1.2473515730932816 Z" fill="#173054" transform="matrix(1,0,0,1,0,0)" fill-rule="nonzero"></path></g></g><g transform="matrix(-0.9393928107728043,-0.3428427439342567,-0.3428427439342567,0.9393928107728043,7.7921847327413225,1.37748989280368)"><g clip-path="url(#SvgjsClipPath1006)"><path d=" M 4.383212440094787 -1.2346529909504245 L 4.356732093666216 -1.2098089409504245 C 4.335089192594787 -1.1877097205932816 4.3115449611662156 -1.1675579234504245 4.286371347237644 -1.1495886230932815 C 4.272345290809072 -1.1401534152361386 4.255887836166216 -1.1349910152361389 4.238987890094787 -1.1347236766647102 C 4.216600589380501 -1.1345323913075673 4.19495999295193 -1.1427576616647102 4.178352736523358 -1.1577701052361387 C 4.170321056166216 -1.164066389521853 4.16379200295193 -1.1720704141647103 4.159235724023358 -1.1812037138075673 C 4.1546794450947875 -1.1903347088075673 4.152211172594787 -1.2003645145218529 4.1520106686662155 -1.2105694730932814 C 4.151625793309073 -1.2238926134504244 4.1562005093805015 -1.2368838852361388 4.164847529380501 -1.2470289230932816 C 4.168592574023359 -1.2516958248789958 4.173344747594787 -1.255457002021853 4.178749135094787 -1.2580312880932816 C 4.18415121795193 -1.2606055741647102 4.1900672361662155 -1.261926134521853 4.196052393666216 -1.261893869521853 C 4.2049552290233585 -1.2612877484504244 4.213616076880501 -1.2587203763075672 4.221412683666216 -1.2543784291647102 C 4.22920929045193 -1.2500341773789958 4.235950370809073 -1.2440236688075672 4.241154254380501 -1.2367732623789958 C 4.237946191523359 -1.2373909066647102 4.23469434045193 -1.2377550402361388 4.231428661523359 -1.237856444521853 C 4.2174095190233585 -1.2381260877361386 4.203775251880502 -1.233274814521853 4.1930794043805015 -1.2242129588075672 C 4.1880829386662155 -1.2203803377361386 4.184031376523358 -1.2154553159504244 4.181235844737644 -1.2098135502361387 C 4.17844031295193 -1.2041740891647101 4.17697225545193 -1.1979676859504245 4.176946904380501 -1.19167140166471 C 4.176903116166216 -1.1878595223789958 4.17764982045193 -1.1840799080932816 4.179136315094787 -1.180569937021853 C 4.1806228097376446 -1.1770599659504244 4.182819134380502 -1.1738956913075673 4.185589315094787 -1.1712753123789958 C 4.188211998666215 -1.1685627477361387 4.191357836166215 -1.1664125159504244 4.194835542237644 -1.1649490677361387 C 4.198313248309073 -1.16348792416471 4.2020513790233585 -1.1627458291647101 4.205824079380501 -1.1627711802361387 C 4.226349228666216 -1.1627711802361387 4.261465071880502 -1.1884287691647102 4.311169304380502 -1.2397462516647102 L 4.333040365094787 -1.26217042666471 C 4.31145277545193 -1.2757562963075673 4.287908544023359 -1.2859543409504244 4.26323273295193 -1.2924073409504244 C 4.237900098666215 -1.3003629680932816 4.2115787725947875 -1.3047325709504243 4.185036200809073 -1.3053824802361387 C 4.149161669166216 -1.3064933180932816 4.114242411987644 -1.2937209873789959 4.087549116559073 -1.2697296552361388 C 4.0749438724519305 -1.2586604555932817 4.064907152809073 -1.24497318166471 4.058140029987644 -1.2296242602361387 C 4.051372907166216 -1.2142753388075673 4.048038549880501 -1.1976335127361386 4.048370187987644 -1.1808626266647102 C 4.048317411666216 -1.1730821523789958 4.04931739620193 -1.1653293338075672 4.051343177273359 -1.1578161980932815 C 4.013178291559073 -1.1646679013075674 3.9940958487019302 -1.1814157409504245 3.9940958487019302 -1.2080574123789958 C 3.9947874720233587 -1.2260428452361387 3.99998421120193 -1.2435650448789959 4.009209235630501 -1.2590199798789958 C 4.018434490523359 -1.2744749148789958 4.031392805916216 -1.2873647823789958 4.046895216559073 -1.2965096052361387 C 4.0834321025590725 -1.321858372021853 4.1270725892376445 -1.3349556573789958 4.171530993666216 -1.3339139588075672 C 4.209691270094787 -1.331263619521853 4.24708410045193 -1.3219021602361387 4.2819925258090725 -1.306258244521853 L 4.262541340094787 -1.3251793623789958 C 4.243749282237644 -1.3436741213075671 4.222866913309073 -1.35991724416471 4.20031598295193 -1.3735764014504244 C 4.185197525809073 -1.3842351442004244 4.167645365809073 -1.3909243700932814 4.149267682737644 -1.3930280480932815 C 4.139978589237645 -1.3933009178075673 4.130908436809073 -1.3901788181289958 4.1237550558447875 -1.3842471283432816 C 4.12049882595193 -1.3817021112361387 4.117868997987644 -1.3784449594861388 4.11606722820193 -1.3747254963789959 C 4.114265458416216 -1.3710062637361387 4.113340144309073 -1.3669233584504243 4.113361347023359 -1.3627911338075673 C 4.113423572380501 -1.3600693505932815 4.113692985130501 -1.3573590905932815 4.114167741559073 -1.3546787909504245 C 4.0893236915590725 -1.3640356409504244 4.076901897023359 -1.3760960674861387 4.076901897023359 -1.3908612228789958 C 4.077048933237644 -1.3961865611289959 4.078550177594787 -1.401386757271853 4.081263894559073 -1.4059713833075673 C 4.083977381059073 -1.4105557788789957 4.0878139200233585 -1.4143743416289958 4.092411682523359 -1.4170654730932815 C 4.103632066737644 -1.4245283675932816 4.116900587059073 -1.4283065990932815 4.130369380844787 -1.427874017628996 C 4.164755343666216 -1.427874017628996 4.215256982594787 -1.3952863676289957 4.2818772936662155 -1.3301112980932817 L 4.300775365094787 -1.3114667373789959 C 4.314826772594787 -1.2976250523789958 4.33000515045193 -1.2849748677361386 4.34615378295193 -1.2736475480932816 C 4.357561765094787 -1.2873302127361388 4.371633914380501 -1.2985561280932816 4.387510599023359 -1.3066362059504244 C 4.403389588309073 -1.3147185884504244 4.420745853666216 -1.31948919916471 4.438523868666215 -1.3206622623789959 C 4.45532241045193 -1.3212384230932814 4.471795997594787 -1.3159331352361388 4.485100700809073 -1.3056590373789958 C 4.490919924023359 -1.3014323223789959 4.495658269737644 -1.2958873516647103 4.498921644023358 -1.2894781398789958 C 4.50218732295193 -1.2830689280932814 4.503885844737645 -1.2759775420218529 4.503883540094787 -1.2687847516647102 C 4.503934242237644 -1.2617855513075673 4.502334820094787 -1.2548716227361387 4.499216638309073 -1.2486052988075673 C 4.496098456523359 -1.242338974878996 4.491544482237645 -1.2368954084504244 4.485930372237644 -1.2327170909504244 C 4.473081988309072 -1.2227932988075674 4.457166124737644 -1.2176816009504243 4.440943743666216 -1.2182669802361388 C 4.420646754023359 -1.2189099755932815 4.400819911523358 -1.2245379134504244 4.383212440094787 -1.2346529909504245 L 4.383212440094787 -1.2346529909504245 Z M 4.397040297237644 -1.2473515730932816 C 4.409669740094787 -1.2421338616647102 4.423101198666216 -1.2391170841647101 4.436749293666216 -1.2384326052361387 C 4.446679999737644 -1.2378034377361387 4.456601487237644 -1.2398061723789957 4.4655112365233585 -1.2442403052361386 C 4.468557974380501 -1.2459803105932816 4.471065425809073 -1.2485269409504243 4.472757033666216 -1.251601334521853 C 4.474448641523359 -1.2546757280932817 4.475257571166216 -1.2581580434504245 4.475098550809073 -1.2616634052361386 C 4.475248352594787 -1.2640003130932815 4.474808165809073 -1.2663395255932817 4.473817169380501 -1.2684621016647102 C 4.472828477594787 -1.2705846777361387 4.4713166318805015 -1.2724237827361387 4.469429129380502 -1.2738088730932815 C 4.4642160272376445 -1.2768901805932815 4.458184776880501 -1.2783052313075673 4.45214430795193 -1.2778650445218531 C 4.430471446523359 -1.2752930630932815 4.410669955094787 -1.2643390955932816 4.39697115795193 -1.2473515730932816 L 4.397040297237644 -1.2473515730932816 Z" fill="#173054" transform="matrix(1,0,0,1,0,0)" fill-rule="nonzero"></path></g></g></g><defs><clipPath id="SvgjsClipPath1004"><path d=" M 0 0 h 4.2294244095811555 v 4.2295437769442605 h -4.2294244095811555 Z"></path></clipPath><clipPath id="a561c0b04-2c04-4520-bba3-c94e73c5dc1f548d62e8-e5ec-4d18-9ed3-8fef146e69de"><path d=" M 0 4.2295437769442605 L 4.229413836020132 4.2295437769442605 L 4.229413836020132 -0.000029215162119833136 L 0 -0.000029215162119833136 Z"></path></clipPath><clipPath id="SvgjsClipPath1005"><path d=" M -0.3368458126564896 -1.5998006052361387 h 0.6452999999999999 v 0.6452999999999999 h -0.6452999999999999 Z"></path></clipPath><clipPath id="SvgjsClipPath1006"><path d=" M 3.9209702222376444 -1.5998006052361387 h 0.6452999999999999 v 0.6452999999999999 h -0.6452999999999999 Z"></path></clipPath></defs></svg>